# xmcd CD database file
#
# Track frame offsets:
#	150
#	42900
#	78047
#	106235
#	131630
#	157675
#	187037
#	214120
#	246100
#
# Disc length: 3516 seconds
#
# Revision: 0
# Processed by: cddbd v1.5.1PL0 Copyright (c) Steve Scherf et al.
# Submitted via: CDex 1.51
#
DISCID=6b0dba09
DTITLE=Krakowczyk 5-tet - From Bop To New Age
DYEAR=1993
DGENRE=Jazz
TTITLE0=Jump Ride Low Tide
TTITLE1=The Heart Is A Lonely Hunter
TTITLE2=No New Game
TTITLE3=Dialogue
TTITLE4=Sex And Fun
TTITLE5=Soulfood
TTITLE6=Red Toothbrush
TTITLE7=Nearly A Love Song
TTITLE8=Partytime
EXTD=YEAR: 1993
EXTT0=
EXTT1=
EXTT2=
EXTT3=
EXTT4=
EXTT5=
EXTT6=
EXTT7=
EXTT8=
PLAYORDER=
